<mxfile host="65bd71144e">
    <diagram id="ytRaEwQvqbExoi5OC-qA" name="Page-1">
        <mxGraphModel dx="2336" dy="591" grid="1" gridSize="10" guides="1" tooltips="1" connect="1" arrows="1" fold="1" page="1" pageScale="1" pageWidth="827" pageHeight="1169" math="0" shadow="0">
            <root>
                <mxCell id="0"/>
                <mxCell id="1" parent="0"/>
                <mxCell id="7" style="edgeStyle=none;html=1;exitX=0.5;exitY=1;exitDx=0;exitDy=0;entryX=0.5;entryY=0;entryDx=0;entryDy=0;fontColor=#000000;" edge="1" parent="1" source="2" target="4">
                    <mxGeometry relative="1" as="geometry"/>
                </mxCell>
                <object label="function call&lt;br&gt;doc_set" id="2">
                    <mxCell style="rounded=1;whiteSpace=wrap;html=1;fillColor=#33FF33;fontColor=#000000;arcSize=50;" vertex="1" parent="1">
                        <mxGeometry x="150" y="40" width="120" height="60" as="geometry"/>
                    </mxCell>
                </object>
                <mxCell id="8" value="yes" style="edgeStyle=none;html=1;exitX=0.5;exitY=1;exitDx=0;exitDy=0;entryX=0.5;entryY=0;entryDx=0;entryDy=0;fontColor=#FFFFFF;" edge="1" parent="1" source="4" target="5">
                    <mxGeometry relative="1" as="geometry"/>
                </mxCell>
                <mxCell id="12" value="No" style="edgeStyle=none;html=1;exitX=1;exitY=0.5;exitDx=0;exitDy=0;entryX=0;entryY=0.5;entryDx=0;entryDy=0;fontColor=#FFFFFF;strokeColor=#FFFFFF;" edge="1" parent="1" source="4" target="10">
                    <mxGeometry relative="1" as="geometry"/>
                </mxCell>
                <mxCell id="4" value="config&lt;br&gt;exists?" style="rhombus;whiteSpace=wrap;html=1;fontColor=#000000;fillColor=#33FF33;" vertex="1" parent="1">
                    <mxGeometry x="170" y="150" width="80" height="80" as="geometry"/>
                </mxCell>
                <mxCell id="9" style="edgeStyle=none;html=1;exitX=0.5;exitY=1;exitDx=0;exitDy=0;entryX=0.5;entryY=0;entryDx=0;entryDy=0;fontColor=#000000;" edge="1" parent="1" source="5" target="6">
                    <mxGeometry relative="1" as="geometry"/>
                </mxCell>
                <mxCell id="20" style="edgeStyle=orthogonalEdgeStyle;html=1;fontColor=#000000;strokeColor=#FFFFFF;" edge="1" parent="1" source="5" target="18">
                    <mxGeometry relative="1" as="geometry"/>
                </mxCell>
                <mxCell id="5" value="Open&lt;br&gt;Read&lt;br&gt;Close" style="whiteSpace=wrap;html=1;aspect=fixed;fontColor=#000000;fillColor=#33FF33;" vertex="1" parent="1">
                    <mxGeometry x="170" y="270" width="80" height="80" as="geometry"/>
                </mxCell>
                <mxCell id="6" value="Return settings" style="rounded=1;whiteSpace=wrap;html=1;fontColor=#000000;fillColor=#33FF33;arcSize=50;" vertex="1" parent="1">
                    <mxGeometry x="150" y="390" width="120" height="60" as="geometry"/>
                </mxCell>
                <mxCell id="19" style="edgeStyle=orthogonalEdgeStyle;html=1;entryX=0.5;entryY=0;entryDx=0;entryDy=0;entryPerimeter=0;fontColor=#000000;strokeColor=#FFFFFF;" edge="1" parent="1" source="10" target="18">
                    <mxGeometry relative="1" as="geometry"/>
                </mxCell>
                <mxCell id="10" value="Create &lt;br&gt;config&lt;br&gt;file" style="whiteSpace=wrap;html=1;aspect=fixed;fontColor=#000000;fillColor=#33FF33;" vertex="1" parent="1">
                    <mxGeometry x="340" y="148" width="82" height="82" as="geometry"/>
                </mxCell>
                <mxCell id="24" style="edgeStyle=orthogonalEdgeStyle;html=1;fontColor=#000000;strokeColor=#FFFFFF;" edge="1" parent="1" source="13" target="14">
                    <mxGeometry relative="1" as="geometry"/>
                </mxCell>
                <object label="Call from main" id="13">
                    <mxCell style="rounded=1;whiteSpace=wrap;html=1;fillColor=#33FF33;fontColor=#000000;arcSize=50;" vertex="1" parent="1">
                        <mxGeometry x="610" y="40" width="120" height="60" as="geometry"/>
                    </mxCell>
                </object>
                <mxCell id="17" style="edgeStyle=orthogonalEdgeStyle;html=1;fontColor=#000000;strokeColor=#FFFFFF;entryX=1;entryY=0.5;entryDx=0;entryDy=0;entryPerimeter=0;" edge="1" parent="1" source="14" target="18">
                    <mxGeometry relative="1" as="geometry">
                        <mxPoint x="424" y="312" as="targetPoint"/>
                    </mxGeometry>
                </mxCell>
                <mxCell id="14" value="&lt;font color=&quot;#000000&quot;&gt;Menu&lt;br&gt;1) Add&lt;br&gt;2) Edit&lt;br&gt;3) Lookup&lt;br&gt;4) quit&lt;br&gt;&lt;/font&gt;" style="shape=process;whiteSpace=wrap;html=1;backgroundOutline=1;fontColor=#FFFFFF;fillColor=#33FF33;" vertex="1" parent="1">
                    <mxGeometry x="610" y="148" width="120" height="90" as="geometry"/>
                </mxCell>
                <mxCell id="23" style="edgeStyle=orthogonalEdgeStyle;html=1;entryX=1;entryY=1;entryDx=0;entryDy=0;fontColor=#000000;strokeColor=#FFFFFF;" edge="1" parent="1" source="18" target="5">
                    <mxGeometry relative="1" as="geometry"/>
                </mxCell>
                <mxCell id="18" value="config" style="shape=cylinder3;whiteSpace=wrap;html=1;boundedLbl=1;backgroundOutline=1;size=15;fontColor=#000000;fillColor=#33FF33;" vertex="1" parent="1">
                    <mxGeometry x="336" y="270" width="90" height="80" as="geometry"/>
                </mxCell>
            </root>
        </mxGraphModel>
    </diagram>
</mxfile>